<?xml version="1.0" encoding="UTF-8"?>
<svg id="a" data-name="Layer 1" xmlns="http://www.w3.org/2000/svg" viewBox="0 0 94.75 56.49">
  <defs>
    <style>
      .b {
        fill: #00d11a;
      }

      .c {
        fill: #6b151c;
      }

      .d {
        fill: #fff;
      }

      .e {
        fill: #b82936;
      }

      .f {
        fill: #c5f4db;
      }

      .g {
        fill: #0ede50;
      }

      .h {
        fill: #09ab12;
      }

      .i {
        fill: #456841;
      }

      .j {
        fill: #5c0b10;
      }

      .k {
        fill: #2c4028;
      }

      .l {
        fill: #7d1822;
      }
    </style>
  </defs>
  <g>
    <g>
      <g>
        <polygon class="i" points="31.58 56.49 0 38.26 0 37.05 4.01 37.89 32.26 54.89 31.58 56.49"/>
        <polygon class="k" points="94.75 20.02 31.58 56.49 31.58 55.28 38.49 50.13 62.78 35.93 94.75 18.81 94.75 20.02"/>
      </g>
      <polygon class="b" points="31.58 55.28 0 37.05 0 36.47 4.01 37.32 32.26 54.31 31.58 55.28"/>
      <polygon class="h" points="94.75 18.81 31.58 55.28 31.58 54.7 38.49 49.55 62.78 35.35 94.75 18.23 94.75 18.81"/>
    </g>
    <polygon class="g" points="63.17 0 0 36.47 31.58 54.7 94.75 18.23 63.17 0"/>
    <path class="d" d="M92.03,18.2L31.53,53.13,2.73,36.5,63.22,1.57l28.8,16.63ZM31.53,52.89L91.6,18.2,63.22,1.82,3.15,36.5l28.38,16.39Z"/>
    <polygon class="d" points="66.78 3.75 6.5 38.56 6.29 38.44 66.57 3.63 66.78 3.75"/>
    <polygon class="d" points="88.46 16.27 28.18 51.07 27.97 50.95 88.25 16.15 88.46 16.27"/>
    <polygon class="d" points="42.48 42.7 42.26 42.82 20.59 30.3 20.8 30.18 42.48 42.7"/>
    <polygon class="d" points="74.16 24.4 73.95 24.52 52.28 12.01 52.49 11.88 74.16 24.4"/>
    <polygon class="d" points="63.33 18.26 31.64 36.56 31.42 36.44 63.12 18.14 63.33 18.26"/>
  </g>
  <g>
    <g>
      <polygon class="j" points="32.89 14.14 32.89 18.82 32.56 19.01 32.44 14.26 32.89 14.14"/>
      <polygon class="c" points="32.56 14.32 32.56 19.01 32.09 19.01 31.75 14.14 32.56 14.32"/>
      <polygon class="l" points="32.09 14.32 32.09 19.01 31.75 18.82 31.75 14.14 32.09 14.32"/>
      <polygon class="e" points="31.75 13.86 31.75 14.14 32.09 14.32 32.56 14.32 32.89 14.14 32.89 13.86 32.56 13.67 32.09 13.67 31.75 13.86"/>
    </g>
    <g>
      <g>
        <g>
          <polygon class="d" points="47.39 27.34 47.34 27.37 47.27 27.13 32.87 18.82 32.71 18.68 32.76 18.65 47.39 27.09 47.39 27.34"/>
          <polygon class="f" points="47.34 27.37 32.71 18.92 32.71 18.68 47.34 27.12 47.34 27.37"/>
        </g>
        <g>
          <path class="d" d="M33.01,18.85s-.03-.01-.03-.03v-4.1s.01-.03,.03-.03c.02,0,.03,.01,.03,.03v4.1s-.01,.03-.03,.03Z"/>
          <path class="d" d="M33.6,19.19s-.03-.01-.03-.03v-4.1s.01-.03,.03-.03c.02,0,.03,.01,.03,.03v4.1s-.01,.03-.03,.03Z"/>
          <path class="d" d="M34.2,19.53s-.03-.01-.03-.03v-4.1s.01-.03,.03-.03,.03,.01,.03,.03v4.1s-.01,.03-.03,.03Z"/>
          <path class="d" d="M34.79,19.87s-.03-.01-.03-.03v-4.1s.01-.03,.03-.03c.02,0,.03,.01,.03,.03v4.1s-.01,.03-.03,.03Z"/>
          <path class="d" d="M35.38,20.21s-.03-.01-.03-.03v-4.1s.01-.03,.03-.03,.03,.01,.03,.03v4.1s-.01,.03-.03,.03Z"/>
          <path class="d" d="M35.97,20.55s-.03-.01-.03-.03v-4.1s.01-.03,.03-.03,.03,.01,.03,.03v4.1s-.01,.03-.03,.03Z"/>
          <path class="d" d="M36.56,20.89s-.03-.01-.03-.03v-4.1s.01-.03,.03-.03,.03,.01,.03,.03v4.1s-.01,.03-.03,.03Z"/>
          <path class="d" d="M37.15,21.23s-.03-.01-.03-.03v-4.1s.01-.03,.03-.03c.02,0,.03,.01,.03,.03v4.1s-.01,.03-.03,.03Z"/>
          <path class="d" d="M37.74,21.58s-.03-.01-.03-.03v-4.1s.01-.03,.03-.03,.03,.01,.03,.03v4.1s-.01,.03-.03,.03Z"/>
          <path class="d" d="M38.33,21.92s-.03-.01-.03-.03v-4.1s.01-.03,.03-.03c.02,0,.03,.01,.03,.03v4.1s-.01,.03-.03,.03Z"/>
          <path class="d" d="M38.92,22.26s-.03-.01-.03-.03v-4.1s.01-.03,.03-.03,.03,.01,.03,.03v4.1s-.01,.03-.03,.03Z"/>
          <path class="d" d="M39.51,22.6s-.03-.01-.03-.03v-4.1s.01-.03,.03-.03,.03,.01,.03,.03v4.1s-.01,.03-.03,.03Z"/>
          <path class="d" d="M40.1,22.94s-.03-.01-.03-.03v-4.1s.01-.03,.03-.03c.02,0,.03,.01,.03,.03v4.1s-.01,.03-.03,.03Z"/>
          <path class="d" d="M40.69,23.28s-.03-.01-.03-.03v-4.1s.01-.03,.03-.03,.03,.01,.03,.03v4.1s-.01,.03-.03,.03Z"/>
          <path class="d" d="M41.28,23.62s-.03-.01-.03-.03v-4.1s.01-.03,.03-.03c.02,0,.03,.01,.03,.03v4.1s-.01,.03-.03,.03Z"/>
          <path class="d" d="M41.87,23.96s-.03-.01-.03-.03v-4.1s.01-.03,.03-.03,.03,.01,.03,.03v4.1s-.01,.03-.03,.03Z"/>
          <path class="d" d="M42.47,24.3s-.03-.01-.03-.03v-4.1s.01-.03,.03-.03,.03,.01,.03,.03v4.1s-.01,.03-.03,.03Z"/>
          <path class="d" d="M43.06,24.65s-.03-.01-.03-.03v-4.1s.01-.03,.03-.03,.03,.01,.03,.03v4.1s-.01,.03-.03,.03Z"/>
          <path class="d" d="M43.65,24.99s-.03-.01-.03-.03v-4.1s.01-.03,.03-.03c.02,0,.03,.01,.03,.03v4.1s-.01,.03-.03,.03Z"/>
          <path class="d" d="M44.24,25.33s-.03-.01-.03-.03v-4.1s.01-.03,.03-.03,.03,.01,.03,.03v4.1s-.01,.03-.03,.03Z"/>
          <path class="d" d="M44.83,25.67s-.03-.01-.03-.03v-4.1s.01-.03,.03-.03c.02,0,.03,.01,.03,.03v4.1s-.01,.03-.03,.03Z"/>
          <path class="d" d="M45.42,26.01s-.03-.01-.03-.03v-4.1s.01-.03,.03-.03c.02,0,.03,.01,.03,.03v4.1s-.01,.03-.03,.03Z"/>
          <path class="d" d="M46.01,26.35s-.03-.01-.03-.03v-4.1s.01-.03,.03-.03,.03,.01,.03,.03v4.1s-.01,.03-.03,.03Z"/>
          <path class="d" d="M46.6,26.69s-.03-.01-.03-.03v-4.1s.01-.03,.03-.03,.03,.01,.03,.03v4.1s-.01,.03-.03,.03Z"/>
          <path class="d" d="M47.19,27.03s-.03-.01-.03-.03v-4.1s.01-.03,.03-.03c.02,0,.03,.01,.03,.03v4.1s-.01,.03-.03,.03Z"/>
          <polygon class="d" points="47.64 27.26 47.19 27 47.19 22.9 47.64 23.16 47.64 27.26"/>
          <path class="d" d="M47.37,25.39s-.01,0-.02,0l-14.62-8.44s-.02-.03-.01-.04c0-.01,.03-.02,.04-.01l14.62,8.44s.02,.03,.01,.04c0,0-.02,.01-.03,.01Z"/>
          <path class="d" d="M47.37,25.87s-.01,0-.02,0l-14.62-8.44s-.02-.03-.01-.04c0-.01,.03-.02,.04-.01l14.62,8.44s.02,.03,.01,.04c0,0-.02,.01-.03,.01Z"/>
          <path class="d" d="M47.37,26.34s-.01,0-.02,0l-14.62-8.44s-.02-.03-.01-.04c0-.01,.03-.02,.04-.01l14.62,8.44s.02,.03,.01,.04c0,0-.02,.01-.03,.01Z"/>
          <path class="d" d="M47.37,26.82s-.01,0-.02,0l-14.62-8.44s-.02-.03-.01-.04c0-.01,.03-.02,.04-.01l14.62,8.44s.02,.03,.01,.04c0,0-.02,.02-.03,.02Z"/>
          <path class="d" d="M47.37,23.49s-.01,0-.02,0l-14.62-8.44s-.02-.03-.01-.04c0-.01,.03-.02,.04-.01l14.62,8.44s.02,.03,.01,.04c0,0-.02,.02-.03,.02Z"/>
          <path class="d" d="M47.37,23.96s-.01,0-.02,0l-14.62-8.44s-.02-.03-.01-.04c0-.01,.03-.02,.04-.01l14.62,8.44s.02,.03,.01,.04c0,0-.02,.02-.03,.02Z"/>
          <path class="d" d="M47.37,24.44h-.02l-14.62-8.45s-.02-.03-.01-.04c0-.01,.03-.02,.04-.01l14.62,8.44s.02,.03,.01,.04c0,0-.02,.02-.03,.02Z"/>
          <path class="d" d="M47.37,24.92s-.01,0-.02,0l-14.62-8.44s-.02-.03-.01-.04c0-.01,.03-.02,.04-.01l14.62,8.44s.02,.03,.01,.04c0,0-.02,.02-.03,.02Z"/>
        </g>
        <g>
          <polygon class="d" points="47.39 23.01 47.34 23.04 47.27 22.8 32.87 14.49 32.71 14.35 32.76 14.32 47.39 22.76 47.39 23.01"/>
          <polygon class="f" points="47.34 23.04 32.71 14.59 32.71 14.35 47.34 22.79 47.34 23.04"/>
        </g>
      </g>
      <g>
        <g>
          <polygon class="d" points="62.02 35.78 61.97 35.81 61.9 35.58 47.5 27.27 47.34 27.12 47.39 27.09 62.02 35.54 62.02 35.78"/>
          <polygon class="f" points="61.97 35.81 47.34 27.37 47.34 27.12 61.97 35.57 61.97 35.81"/>
        </g>
        <g>
          <path class="d" d="M47.64,27.29s-.03-.01-.03-.03v-4.1s.01-.03,.03-.03c.02,0,.03,.01,.03,.03v4.1s-.01,.03-.03,.03Z"/>
          <path class="d" d="M48.23,27.64s-.03-.01-.03-.03v-4.1s.01-.03,.03-.03c.02,0,.03,.01,.03,.03v4.1s-.01,.03-.03,.03Z"/>
          <path class="d" d="M48.82,27.98s-.03-.01-.03-.03v-4.1s.01-.03,.03-.03c.02,0,.03,.01,.03,.03v4.1s-.01,.03-.03,.03Z"/>
          <path class="d" d="M49.41,28.32s-.03-.01-.03-.03v-4.1s.01-.03,.03-.03c.02,0,.03,.01,.03,.03v4.1s-.01,.03-.03,.03Z"/>
          <path class="d" d="M50.01,28.66s-.03-.01-.03-.03v-4.1s.01-.03,.03-.03c.02,0,.03,.01,.03,.03v4.1s-.01,.03-.03,.03Z"/>
          <path class="d" d="M50.6,29s-.03-.01-.03-.03v-4.1s.01-.03,.03-.03,.03,.01,.03,.03v4.1s-.01,.03-.03,.03Z"/>
          <path class="d" d="M51.19,29.34s-.03-.01-.03-.03v-4.1s.01-.03,.03-.03c.02,0,.03,.01,.03,.03v4.1s-.01,.03-.03,.03Z"/>
          <path class="d" d="M51.78,29.68s-.03-.01-.03-.03v-4.1s.01-.03,.03-.03c.02,0,.03,.01,.03,.03v4.1s-.01,.03-.03,.03Z"/>
          <path class="d" d="M52.37,30.02s-.03-.01-.03-.03v-4.1s.01-.03,.03-.03c.02,0,.03,.01,.03,.03v4.1s-.01,.03-.03,.03Z"/>
          <path class="d" d="M52.96,30.36s-.03-.01-.03-.03v-4.1s.01-.03,.03-.03c.02,0,.03,.01,.03,.03v4.1s-.01,.03-.03,.03Z"/>
          <path class="d" d="M53.55,30.71s-.03-.01-.03-.03v-4.1s.01-.03,.03-.03c.02,0,.03,.01,.03,.03v4.1s-.01,.03-.03,.03Z"/>
          <path class="d" d="M54.14,31.05s-.03-.01-.03-.03v-4.1s.01-.03,.03-.03,.03,.01,.03,.03v4.1s-.01,.03-.03,.03Z"/>
          <path class="d" d="M54.73,31.39s-.03-.01-.03-.03v-4.1s.01-.03,.03-.03c.02,0,.03,.01,.03,.03v4.1s-.01,.03-.03,.03Z"/>
          <path class="d" d="M55.32,31.73s-.03-.01-.03-.03v-4.1s.01-.03,.03-.03,.03,.01,.03,.03v4.1s-.01,.03-.03,.03Z"/>
          <path class="d" d="M55.91,32.07s-.03-.01-.03-.03v-4.1s.01-.03,.03-.03c.02,0,.03,.01,.03,.03v4.1s-.01,.03-.03,.03Z"/>
          <path class="d" d="M56.5,32.41s-.03-.01-.03-.03v-4.1s.01-.03,.03-.03,.03,.01,.03,.03v4.1s-.01,.03-.03,.03Z"/>
          <path class="d" d="M57.1,32.75s-.03-.01-.03-.03v-4.1s.01-.03,.03-.03c.02,0,.03,.01,.03,.03v4.1s-.01,.03-.03,.03Z"/>
          <path class="d" d="M57.69,33.09s-.03-.01-.03-.03v-4.1s.01-.03,.03-.03,.03,.01,.03,.03v4.1s-.01,.03-.03,.03Z"/>
          <path class="d" d="M58.28,33.43s-.03-.01-.03-.03v-4.1s.01-.03,.03-.03c.02,0,.03,.01,.03,.03v4.1s-.01,.03-.03,.03Z"/>
          <path class="d" d="M58.87,33.77s-.03-.01-.03-.03v-4.1s.01-.03,.03-.03,.03,.01,.03,.03v4.1s-.01,.03-.03,.03Z"/>
          <path class="d" d="M59.46,34.12s-.03-.01-.03-.03v-4.1s.01-.03,.03-.03c.02,0,.03,.01,.03,.03v4.1s-.01,.03-.03,.03Z"/>
          <path class="d" d="M60.05,34.46s-.03-.01-.03-.03v-4.1s.01-.03,.03-.03,.03,.01,.03,.03v4.1s-.01,.03-.03,.03Z"/>
          <path class="d" d="M60.64,34.8s-.03-.01-.03-.03v-4.1s.01-.03,.03-.03c.02,0,.03,.01,.03,.03v4.1s-.01,.03-.03,.03Z"/>
          <path class="d" d="M61.23,35.14s-.03-.01-.03-.03v-4.1s.01-.03,.03-.03,.03,.01,.03,.03v4.1s-.01,.03-.03,.03Z"/>
          <path class="d" d="M61.82,35.48s-.03-.01-.03-.03v-4.1s.01-.03,.03-.03c.02,0,.03,.01,.03,.03v4.1s-.01,.03-.03,.03Z"/>
          <path class="d" d="M62,33.84h-.01l-14.62-8.45s-.02-.03-.01-.04c0-.01,.03-.02,.04-.01l14.62,8.44s.02,.03,0,.04c0,0-.02,.02-.03,.02Z"/>
          <path class="d" d="M62,34.32h-.01l-14.62-8.45s-.02-.03-.01-.04c0-.01,.03-.02,.04-.01l14.62,8.44s.02,.03,0,.04c0,0-.02,.02-.03,.02Z"/>
          <path class="d" d="M62,34.79h-.01l-14.62-8.45s-.02-.03-.01-.04c0-.01,.03-.02,.04-.01l14.62,8.44s.02,.03,0,.04c0,0-.02,.01-.03,.01Z"/>
          <path class="d" d="M62,35.27h-.01l-14.62-8.45s-.02-.03-.01-.04c0-.01,.03-.02,.04-.01l14.62,8.44s.02,.03,0,.04c0,0-.02,.02-.03,.02Z"/>
          <path class="d" d="M62,31.93h-.01l-14.62-8.45s-.02-.03-.01-.04c0-.01,.03-.02,.04-.01l14.62,8.44s.02,.03,0,.04c0,0-.02,.02-.03,.02Z"/>
          <path class="d" d="M62,32.41h-.01l-14.62-8.45s-.02-.03-.01-.04c0-.01,.03-.02,.04-.01l14.62,8.44s.02,.03,0,.04c0,0-.02,.01-.03,.01Z"/>
          <path class="d" d="M62,32.89h-.01l-14.62-8.45s-.02-.03-.01-.04c0-.01,.03-.02,.04-.01l14.62,8.44s.02,.03,0,.04c0,0-.02,.01-.03,.01Z"/>
          <path class="d" d="M62,33.37h-.01l-14.62-8.45s-.02-.03-.01-.04c0-.01,.03-.02,.04-.01l14.62,8.44s.02,.03,0,.04c0,0-.02,.02-.03,.02Z"/>
        </g>
        <g>
          <polygon class="d" points="62.02 31.45 61.97 31.48 61.9 31.25 47.5 22.94 47.34 22.79 47.39 22.76 62.02 31.21 62.02 31.45"/>
          <polygon class="f" points="61.97 31.48 47.34 23.04 47.34 22.79 61.97 31.24 61.97 31.48"/>
        </g>
      </g>
    </g>
    <g>
      <polygon class="j" points="62.96 31.5 62.96 36.17 62.63 36.36 62.51 31.62 62.96 31.5"/>
      <polygon class="c" points="62.63 31.68 62.63 36.36 62.16 36.36 61.83 31.5 62.63 31.68"/>
      <polygon class="l" points="62.16 31.68 62.16 36.36 61.83 36.17 61.83 31.5 62.16 31.68"/>
      <polygon class="e" points="61.83 31.22 61.83 31.5 62.16 31.68 62.63 31.68 62.96 31.5 62.96 31.22 62.63 31.03 62.16 31.03 61.83 31.22"/>
    </g>
  </g>
</svg>