<?xml version="1.0" encoding="utf-8"?>
<!-- Generator: Adobe Illustrator 26.2.1, SVG Export Plug-In . SVG Version: 6.00 Build 0)  -->
<svg version="1.1" id="Capa_1" xmlns="http://www.w3.org/2000/svg" xmlns:xlink="http://www.w3.org/1999/xlink" x="0px" y="0px"
	 viewBox="0 0 212 212" style="enable-background:new 0 0 212 212;" xml:space="preserve">
<style type="text/css">
	.st0{fill:#F27D1A;}
</style>
<g>
	<g id="XMLID_00000003100585920313569290000011180269758997233823_">
		<path class="st0" d="M82.6,30.4c-6.2,6.3-11.3,13.8-14.8,22.1c-3.5,8.3-5.4,17.4-5.4,27c0,9.6,2,18.8,5.5,27.2
			c5.3,12.5,14.1,23.2,25.3,30.7c11.1,7.5,24.6,11.9,39,11.9c9.6,0,18.7-1.9,27-5.4c8.3-3.5,15.8-8.5,22.1-14.8c0,0,0,0,0,0l0,0
			c0.1-0.1,0.3-0.3,0.4-0.4l0,0l30-30c0.2,2.5,0.3,5,0.3,7.5c0,58.5-47.5,106-106,106S0,164.5,0,106S47.5,0,106,0
			c2.3,0,4.5,0.1,6.7,0.2L82.6,30.4"/>
		<path class="st0" d="M171.6,118.6c-0.1,0.1-0.2,0.2-0.4,0.4c0,0,0,0,0,0v0c-5,5-11,9-17.6,11.8c-6.6,2.8-13.9,4.3-21.5,4.3
			c-7.7,0-15-1.6-21.6-4.4c-10-4.2-18.5-11.3-24.5-20.1c-6-8.9-9.5-19.5-9.5-31.1c0-7.6,1.5-14.9,4.3-21.5
			c2.8-6.6,6.8-12.6,11.7-17.6l0,0l37.5-37.5c38.9,9.1,69.5,39.6,78.8,78.4L171.6,118.6"/>
	</g>
</g>
</svg>
